<svg xmlns="http://www.w3.org/2000/svg" xmlns:xlink="http://www.w3.org/1999/xlink" width="500" zoomAndPan="magnify" viewBox="0 0 375 374.999991" height="500" preserveAspectRatio="xMidYMid meet" version="1.0"><defs><g/></defs><rect x="-37.5" width="450" fill="#ffffff" y="-37.499999" height="449.999989" fill-opacity="1"/><rect x="-37.5" width="450" fill="#ffffff" y="-37.499999" height="449.999989" fill-opacity="1"/><rect x="-37.5" width="450" fill="#ffffff" y="-37.499999" height="449.999989" fill-opacity="1"/><g fill="#f48bc1" fill-opacity="1"><g transform="translate(97.480029, 342.004937)"><g><path d="M 14.0625 0 C 12.71875 0 11.644531 -0.46875 10.84375 -1.40625 C 10.039062 -2.34375 9.773438 -3.484375 10.046875 -4.828125 L 43.390625 -276.421875 C 43.660156 -277.753906 44.265625 -278.890625 45.203125 -279.828125 C 46.140625 -280.765625 47.273438 -281.234375 48.609375 -281.234375 L 94.015625 -281.234375 C 96.960938 -281.234375 98.4375 -279.628906 98.4375 -276.421875 L 85.984375 -175.171875 C 85.710938 -174.097656 85.910156 -173.492188 86.578125 -173.359375 C 87.242188 -173.222656 87.710938 -173.691406 87.984375 -174.765625 L 151.0625 -277.625 C 152.40625 -280.03125 154.414062 -281.234375 157.09375 -281.234375 L 205.296875 -281.234375 C 207.171875 -281.234375 208.375 -280.765625 208.90625 -279.828125 C 209.445312 -278.890625 209.179688 -277.484375 208.109375 -275.609375 L 136.203125 -159.90625 C 135.929688 -159.632812 135.726562 -159.296875 135.59375 -158.890625 C 135.457031 -158.492188 135.390625 -158.023438 135.390625 -157.484375 L 177.984375 -5.625 L 178.390625 -4.015625 C 178.390625 -1.335938 176.914062 0 173.96875 0 L 124.953125 0 C 122.273438 0 120.664062 -1.203125 120.125 -3.609375 L 92.40625 -108.875 C 92.40625 -109.675781 92.066406 -110.007812 91.390625 -109.875 C 90.722656 -109.75 90.125 -109.414062 89.59375 -108.875 L 75.9375 -87.984375 C 75.664062 -87.710938 75.394531 -87.375 75.125 -86.96875 C 74.863281 -86.570312 74.734375 -86.109375 74.734375 -85.578125 L 65.09375 -4.828125 C 64.820312 -3.484375 64.148438 -2.34375 63.078125 -1.40625 C 62.003906 -0.46875 60.800781 0 59.46875 0 Z M 14.0625 0 "/></g></g></g><path stroke-linecap="butt" transform="matrix(0.753308, 0, 0, 0.753308, -12.979596, -36.585327)" fill="none" stroke-linejoin="miter" d="M 141.681181 479.000924 C 139.944051 479.000924 138.512864 478.394225 137.387619 477.175642 C 136.345342 475.874091 135.997916 474.354752 136.345342 472.617622 L 180.613619 112.077734 C 180.961045 110.252452 181.744049 108.733112 182.957447 107.519715 C 184.258997 106.301131 185.825007 105.694432 187.645103 105.694432 L 247.801631 105.694432 C 251.794436 105.694432 253.790838 107.820471 253.790838 112.077734 L 237.254404 246.448574 C 236.818826 247.92643 237.036615 248.750919 237.907772 248.922039 C 238.861897 249.098344 239.51008 248.444976 239.857506 246.972306 L 323.581952 110.511725 C 325.407234 107.301925 328.098488 105.694432 331.655714 105.694432 L 395.587257 105.694432 C 398.102206 105.694432 399.709699 106.301131 400.40455 107.519715 C 401.099402 108.733112 400.751976 110.599878 399.362273 113.114827 L 303.918686 266.760023 C 303.488292 267.107449 303.18235 267.543028 303.01123 268.061574 C 302.834924 268.585305 302.746771 269.192004 302.746771 269.886856 L 359.387557 471.58053 L 359.911289 473.6599 C 359.911289 477.222311 357.95637 479.000924 354.051718 479.000924 L 288.948261 479.000924 C 285.385849 479.000924 283.259811 477.393431 282.564959 474.183631 L 245.717076 334.471767 C 245.717076 333.42949 245.281497 332.993911 244.415526 333.165031 C 243.549554 333.341337 242.725065 333.776916 241.942061 334.471767 L 223.844803 362.20361 C 223.497378 362.551036 223.149952 362.986615 222.802526 363.505161 C 222.4551 364.028892 222.278794 364.677075 222.278794 365.46008 L 209.522561 472.617622 C 209.086983 474.354752 208.174342 475.874091 206.784638 477.175642 C 205.394935 478.394225 203.792627 479.000924 201.967345 479.000924 Z M 141.681181 479.000924 " stroke="#e92087" stroke-width="19.999987" stroke-opacity="1" stroke-miterlimit="4"/></svg>